<mxfile host="app.diagrams.net" modified="2023-04-20T07:03:46.809Z" agent="Mozilla/5.0 (Windows NT 10.0; Win64; x64) AppleWebKit/537.36 (KHTML, like Gecko) Chrome/112.0.0.0 Safari/537.36 Edg/112.0.1722.48" etag="KYqRRmRpl4IUWLFgK1d7" version="21.1.9" type="device">
  <diagram name="페이지-1" id="u04cqxAYaouludI4AbgN">
    <mxGraphModel dx="2204" dy="1965" grid="1" gridSize="10" guides="1" tooltips="1" connect="1" arrows="1" fold="1" page="1" pageScale="1" pageWidth="827" pageHeight="1169" math="0" shadow="0">
      <root>
        <mxCell id="0" />
        <mxCell id="1" parent="0" />
        <mxCell id="UZPZp_y11opqe0B-k2za-4" value="캠핑&lt;br&gt;스토리" style="shape=umlFrame;whiteSpace=wrap;html=1;pointerEvents=0;" parent="1" vertex="1">
          <mxGeometry x="130" y="-50" width="880" height="880" as="geometry" />
        </mxCell>
        <mxCell id="UZPZp_y11opqe0B-k2za-5" value="회원" style="shape=umlActor;verticalLabelPosition=bottom;verticalAlign=top;html=1;" parent="1" vertex="1">
          <mxGeometry x="60" y="453" width="32" height="70" as="geometry" />
        </mxCell>
        <mxCell id="UZPZp_y11opqe0B-k2za-6" value="비회원" style="shape=umlActor;verticalLabelPosition=bottom;verticalAlign=top;html=1;" parent="1" vertex="1">
          <mxGeometry x="60" y="110" width="32" height="70" as="geometry" />
        </mxCell>
        <mxCell id="UZPZp_y11opqe0B-k2za-9" value="About" style="ellipse;whiteSpace=wrap;html=1;" parent="1" vertex="1">
          <mxGeometry x="158" y="78" width="139" height="78" as="geometry" />
        </mxCell>
        <mxCell id="UZPZp_y11opqe0B-k2za-10" value="Rooms" style="ellipse;whiteSpace=wrap;html=1;" parent="1" vertex="1">
          <mxGeometry x="157" y="210" width="140" height="78" as="geometry" />
        </mxCell>
        <mxCell id="UZPZp_y11opqe0B-k2za-11" value="Reservation" style="ellipse;whiteSpace=wrap;html=1;" parent="1" vertex="1">
          <mxGeometry x="157" y="334" width="140" height="79" as="geometry" />
        </mxCell>
        <mxCell id="UZPZp_y11opqe0B-k2za-12" value="Community" style="ellipse;whiteSpace=wrap;html=1;" parent="1" vertex="1">
          <mxGeometry x="170.75" y="490" width="140" height="78" as="geometry" />
        </mxCell>
        <mxCell id="UZPZp_y11opqe0B-k2za-13" value="Use" style="endArrow=open;endSize=12;dashed=1;html=1;rounded=0;exitX=0.5;exitY=0.5;exitDx=0;exitDy=0;exitPerimeter=0;entryX=0;entryY=0.5;entryDx=0;entryDy=0;" parent="1" source="UZPZp_y11opqe0B-k2za-5" target="UZPZp_y11opqe0B-k2za-9" edge="1">
          <mxGeometry width="160" relative="1" as="geometry">
            <mxPoint x="351" y="410" as="sourcePoint" />
            <mxPoint x="511" y="410" as="targetPoint" />
          </mxGeometry>
        </mxCell>
        <mxCell id="UZPZp_y11opqe0B-k2za-14" value="Use" style="endArrow=open;endSize=12;dashed=1;html=1;rounded=0;exitX=0.5;exitY=0.5;exitDx=0;exitDy=0;exitPerimeter=0;entryX=0;entryY=0.5;entryDx=0;entryDy=0;" parent="1" source="UZPZp_y11opqe0B-k2za-5" target="UZPZp_y11opqe0B-k2za-10" edge="1">
          <mxGeometry width="160" relative="1" as="geometry">
            <mxPoint x="66" y="245" as="sourcePoint" />
            <mxPoint x="180" y="220" as="targetPoint" />
          </mxGeometry>
        </mxCell>
        <mxCell id="UZPZp_y11opqe0B-k2za-15" value="Use" style="endArrow=open;endSize=12;dashed=1;html=1;rounded=0;exitX=0.5;exitY=0.5;exitDx=0;exitDy=0;exitPerimeter=0;entryX=0.007;entryY=0.375;entryDx=0;entryDy=0;entryPerimeter=0;" parent="1" source="UZPZp_y11opqe0B-k2za-5" target="UZPZp_y11opqe0B-k2za-11" edge="1">
          <mxGeometry width="160" relative="1" as="geometry">
            <mxPoint x="76" y="255" as="sourcePoint" />
            <mxPoint x="190" y="230" as="targetPoint" />
          </mxGeometry>
        </mxCell>
        <mxCell id="UZPZp_y11opqe0B-k2za-16" value="Use" style="endArrow=open;endSize=12;dashed=1;html=1;rounded=0;exitX=0.5;exitY=0.5;exitDx=0;exitDy=0;exitPerimeter=0;entryX=0;entryY=0.5;entryDx=0;entryDy=0;" parent="1" source="UZPZp_y11opqe0B-k2za-5" target="UZPZp_y11opqe0B-k2za-12" edge="1">
          <mxGeometry width="160" relative="1" as="geometry">
            <mxPoint x="86" y="265" as="sourcePoint" />
            <mxPoint x="200" y="240" as="targetPoint" />
          </mxGeometry>
        </mxCell>
        <mxCell id="UZPZp_y11opqe0B-k2za-17" value="Use" style="endArrow=open;endSize=12;dashed=1;html=1;rounded=0;exitX=0.5;exitY=0.5;exitDx=0;exitDy=0;exitPerimeter=0;entryX=0.014;entryY=0.388;entryDx=0;entryDy=0;entryPerimeter=0;" parent="1" source="UZPZp_y11opqe0B-k2za-6" target="UZPZp_y11opqe0B-k2za-9" edge="1">
          <mxGeometry width="160" relative="1" as="geometry">
            <mxPoint x="66" y="245" as="sourcePoint" />
            <mxPoint x="180" y="520" as="targetPoint" />
          </mxGeometry>
        </mxCell>
        <mxCell id="UZPZp_y11opqe0B-k2za-18" value="Use" style="endArrow=open;endSize=12;dashed=1;html=1;rounded=0;exitX=0.5;exitY=0.5;exitDx=0;exitDy=0;exitPerimeter=0;entryX=0;entryY=0.5;entryDx=0;entryDy=0;" parent="1" source="UZPZp_y11opqe0B-k2za-6" target="UZPZp_y11opqe0B-k2za-10" edge="1">
          <mxGeometry width="160" relative="1" as="geometry">
            <mxPoint x="76" y="255" as="sourcePoint" />
            <mxPoint x="190" y="530" as="targetPoint" />
          </mxGeometry>
        </mxCell>
        <mxCell id="UZPZp_y11opqe0B-k2za-21" value="회원가입" style="ellipse;whiteSpace=wrap;html=1;" parent="1" vertex="1">
          <mxGeometry x="201" width="79.5" height="50" as="geometry" />
        </mxCell>
        <mxCell id="UZPZp_y11opqe0B-k2za-23" value="마이페이지" style="ellipse;whiteSpace=wrap;html=1;" parent="1" vertex="1">
          <mxGeometry x="309.12" y="637" width="100.25" height="60" as="geometry" />
        </mxCell>
        <mxCell id="UZPZp_y11opqe0B-k2za-25" value="" style="edgeStyle=orthogonalEdgeStyle;rounded=0;orthogonalLoop=1;jettySize=auto;html=1;" parent="1" source="UZPZp_y11opqe0B-k2za-24" target="UZPZp_y11opqe0B-k2za-23" edge="1">
          <mxGeometry relative="1" as="geometry" />
        </mxCell>
        <mxCell id="UZPZp_y11opqe0B-k2za-24" value="예약 조회" style="ellipse;whiteSpace=wrap;html=1;" parent="1" vertex="1">
          <mxGeometry x="260" y="737" width="60" height="60" as="geometry" />
        </mxCell>
        <mxCell id="UZPZp_y11opqe0B-k2za-27" value="extend" style="edgeStyle=orthogonalEdgeStyle;rounded=0;orthogonalLoop=1;jettySize=auto;html=1;" parent="1" source="UZPZp_y11opqe0B-k2za-26" target="UZPZp_y11opqe0B-k2za-23" edge="1">
          <mxGeometry relative="1" as="geometry" />
        </mxCell>
        <mxCell id="UZPZp_y11opqe0B-k2za-26" value="예약변경" style="ellipse;whiteSpace=wrap;html=1;" parent="1" vertex="1">
          <mxGeometry x="329.25" y="737" width="60" height="60" as="geometry" />
        </mxCell>
        <mxCell id="UZPZp_y11opqe0B-k2za-29" value="" style="edgeStyle=orthogonalEdgeStyle;rounded=0;orthogonalLoop=1;jettySize=auto;html=1;" parent="1" source="UZPZp_y11opqe0B-k2za-28" target="UZPZp_y11opqe0B-k2za-23" edge="1">
          <mxGeometry relative="1" as="geometry" />
        </mxCell>
        <mxCell id="UZPZp_y11opqe0B-k2za-28" value="예약 취소" style="ellipse;whiteSpace=wrap;html=1;" parent="1" vertex="1">
          <mxGeometry x="400" y="737" width="60" height="60" as="geometry" />
        </mxCell>
        <mxCell id="UZPZp_y11opqe0B-k2za-30" value="Use" style="endArrow=open;endSize=12;dashed=1;html=1;rounded=0;exitX=0.5;exitY=0.5;exitDx=0;exitDy=0;exitPerimeter=0;entryX=0;entryY=0.5;entryDx=0;entryDy=0;" parent="1" source="UZPZp_y11opqe0B-k2za-6" target="UZPZp_y11opqe0B-k2za-21" edge="1">
          <mxGeometry width="160" relative="1" as="geometry">
            <mxPoint x="151" y="130" as="sourcePoint" />
            <mxPoint x="311" y="130" as="targetPoint" />
          </mxGeometry>
        </mxCell>
        <mxCell id="UZPZp_y11opqe0B-k2za-31" value="Use" style="endArrow=open;endSize=12;dashed=1;html=1;rounded=0;exitX=0.5;exitY=0.5;exitDx=0;exitDy=0;exitPerimeter=0;entryX=0.062;entryY=0.3;entryDx=0;entryDy=0;entryPerimeter=0;" parent="1" source="UZPZp_y11opqe0B-k2za-5" target="UZPZp_y11opqe0B-k2za-23" edge="1">
          <mxGeometry width="160" relative="1" as="geometry">
            <mxPoint x="34" y="560" as="sourcePoint" />
            <mxPoint x="190" y="499" as="targetPoint" />
          </mxGeometry>
        </mxCell>
        <mxCell id="UZPZp_y11opqe0B-k2za-32" value="인증" style="ellipse;whiteSpace=wrap;html=1;" parent="1" vertex="1">
          <mxGeometry x="550" y="332" width="139" height="78" as="geometry" />
        </mxCell>
        <mxCell id="CXmZNFnAKOORq5R4l5_O-1" value="include" style="endArrow=open;endSize=12;html=1;rounded=0;entryX=1;entryY=0;entryDx=0;entryDy=0;exitX=0;exitY=0.5;exitDx=0;exitDy=0;" parent="1" source="UZPZp_y11opqe0B-k2za-32" target="UZPZp_y11opqe0B-k2za-11" edge="1">
          <mxGeometry width="160" relative="1" as="geometry">
            <mxPoint x="570.9999999999941" y="371" as="sourcePoint" />
            <mxPoint x="296.9999999999918" y="344.5" as="targetPoint" />
          </mxGeometry>
        </mxCell>
        <mxCell id="CXmZNFnAKOORq5R4l5_O-2" value="회원관리" style="ellipse;whiteSpace=wrap;html=1;" parent="1" vertex="1">
          <mxGeometry x="787" width="139" height="78" as="geometry" />
        </mxCell>
        <mxCell id="CXmZNFnAKOORq5R4l5_O-5" value="extend" style="edgeStyle=orthogonalEdgeStyle;rounded=0;orthogonalLoop=1;jettySize=auto;html=1;" parent="1" source="CXmZNFnAKOORq5R4l5_O-4" edge="1">
          <mxGeometry relative="1" as="geometry">
            <mxPoint x="856.5000000000005" y="77.99999999999955" as="targetPoint" />
          </mxGeometry>
        </mxCell>
        <mxCell id="CXmZNFnAKOORq5R4l5_O-4" value="회원 조회" style="ellipse;whiteSpace=wrap;html=1;" parent="1" vertex="1">
          <mxGeometry x="767" y="120" width="70" height="50" as="geometry" />
        </mxCell>
        <mxCell id="CXmZNFnAKOORq5R4l5_O-7" value="" style="edgeStyle=orthogonalEdgeStyle;rounded=0;orthogonalLoop=1;jettySize=auto;html=1;" parent="1" source="CXmZNFnAKOORq5R4l5_O-6" edge="1">
          <mxGeometry relative="1" as="geometry">
            <mxPoint x="856.5000000000005" y="77.99999999999955" as="targetPoint" />
          </mxGeometry>
        </mxCell>
        <mxCell id="CXmZNFnAKOORq5R4l5_O-6" value="회원 삭제" style="ellipse;whiteSpace=wrap;html=1;" parent="1" vertex="1">
          <mxGeometry x="877" y="120" width="70" height="50" as="geometry" />
        </mxCell>
        <mxCell id="CXmZNFnAKOORq5R4l5_O-8" value="Use" style="endArrow=open;endSize=12;dashed=1;html=1;rounded=0;exitX=0.5;exitY=0.5;exitDx=0;exitDy=0;exitPerimeter=0;entryX=1;entryY=0.5;entryDx=0;entryDy=0;" parent="1" source="UZPZp_y11opqe0B-k2za-8" edge="1">
          <mxGeometry width="160" relative="1" as="geometry">
            <mxPoint x="1110" y="305" as="sourcePoint" />
            <mxPoint x="925.9999999999932" y="39" as="targetPoint" />
          </mxGeometry>
        </mxCell>
        <mxCell id="CXmZNFnAKOORq5R4l5_O-9" value="룸관리" style="ellipse;whiteSpace=wrap;html=1;" parent="1" vertex="1">
          <mxGeometry x="787" y="172" width="139" height="78" as="geometry" />
        </mxCell>
        <mxCell id="CXmZNFnAKOORq5R4l5_O-11" value="" style="edgeStyle=orthogonalEdgeStyle;rounded=0;orthogonalLoop=1;jettySize=auto;html=1;" parent="1" source="CXmZNFnAKOORq5R4l5_O-10" target="CXmZNFnAKOORq5R4l5_O-9" edge="1">
          <mxGeometry relative="1" as="geometry" />
        </mxCell>
        <mxCell id="CXmZNFnAKOORq5R4l5_O-10" value="룸 등록" style="ellipse;whiteSpace=wrap;html=1;" parent="1" vertex="1">
          <mxGeometry x="747" y="301" width="70" height="50" as="geometry" />
        </mxCell>
        <mxCell id="CXmZNFnAKOORq5R4l5_O-13" value="" style="edgeStyle=orthogonalEdgeStyle;rounded=0;orthogonalLoop=1;jettySize=auto;html=1;" parent="1" source="CXmZNFnAKOORq5R4l5_O-12" target="CXmZNFnAKOORq5R4l5_O-9" edge="1">
          <mxGeometry relative="1" as="geometry" />
        </mxCell>
        <mxCell id="CXmZNFnAKOORq5R4l5_O-12" value="룸 삭제" style="ellipse;whiteSpace=wrap;html=1;" parent="1" vertex="1">
          <mxGeometry x="896" y="301" width="70" height="50" as="geometry" />
        </mxCell>
        <mxCell id="CXmZNFnAKOORq5R4l5_O-15" value="extend" style="edgeStyle=orthogonalEdgeStyle;rounded=0;orthogonalLoop=1;jettySize=auto;html=1;" parent="1" source="CXmZNFnAKOORq5R4l5_O-14" target="CXmZNFnAKOORq5R4l5_O-9" edge="1">
          <mxGeometry relative="1" as="geometry" />
        </mxCell>
        <mxCell id="CXmZNFnAKOORq5R4l5_O-14" value="룸 수정" style="ellipse;whiteSpace=wrap;html=1;" parent="1" vertex="1">
          <mxGeometry x="821.5" y="301" width="70" height="50" as="geometry" />
        </mxCell>
        <mxCell id="CXmZNFnAKOORq5R4l5_O-16" value="Use" style="endArrow=open;endSize=12;dashed=1;html=1;rounded=0;exitX=0.5;exitY=0.5;exitDx=0;exitDy=0;exitPerimeter=0;entryX=1;entryY=0.5;entryDx=0;entryDy=0;" parent="1" source="UZPZp_y11opqe0B-k2za-8" target="CXmZNFnAKOORq5R4l5_O-9" edge="1">
          <mxGeometry width="160" relative="1" as="geometry">
            <mxPoint x="1110" y="305" as="sourcePoint" />
            <mxPoint x="893" y="49" as="targetPoint" />
          </mxGeometry>
        </mxCell>
        <mxCell id="CXmZNFnAKOORq5R4l5_O-18" value="온라인 입금처리" style="ellipse;whiteSpace=wrap;html=1;" parent="1" vertex="1">
          <mxGeometry x="787" y="363" width="139" height="78" as="geometry" />
        </mxCell>
        <mxCell id="CXmZNFnAKOORq5R4l5_O-19" value="카테고리 관리" style="ellipse;whiteSpace=wrap;html=1;" parent="1" vertex="1">
          <mxGeometry x="787" y="453" width="139" height="78" as="geometry" />
        </mxCell>
        <mxCell id="CXmZNFnAKOORq5R4l5_O-21" value="" style="edgeStyle=orthogonalEdgeStyle;rounded=0;orthogonalLoop=1;jettySize=auto;html=1;" parent="1" source="CXmZNFnAKOORq5R4l5_O-20" target="CXmZNFnAKOORq5R4l5_O-19" edge="1">
          <mxGeometry relative="1" as="geometry" />
        </mxCell>
        <mxCell id="CXmZNFnAKOORq5R4l5_O-20" value="카테고리&amp;nbsp;&lt;br&gt;등록" style="ellipse;whiteSpace=wrap;html=1;" parent="1" vertex="1">
          <mxGeometry x="747" y="575" width="70" height="50" as="geometry" />
        </mxCell>
        <mxCell id="CXmZNFnAKOORq5R4l5_O-23" value="extend" style="edgeStyle=orthogonalEdgeStyle;rounded=0;orthogonalLoop=1;jettySize=auto;html=1;" parent="1" source="CXmZNFnAKOORq5R4l5_O-22" target="CXmZNFnAKOORq5R4l5_O-19" edge="1">
          <mxGeometry relative="1" as="geometry" />
        </mxCell>
        <mxCell id="CXmZNFnAKOORq5R4l5_O-22" value="카테고리&lt;br&gt;수정" style="ellipse;whiteSpace=wrap;html=1;" parent="1" vertex="1">
          <mxGeometry x="821.5" y="575" width="70" height="50" as="geometry" />
        </mxCell>
        <mxCell id="CXmZNFnAKOORq5R4l5_O-26" value="" style="edgeStyle=orthogonalEdgeStyle;rounded=0;orthogonalLoop=1;jettySize=auto;html=1;" parent="1" source="CXmZNFnAKOORq5R4l5_O-25" target="CXmZNFnAKOORq5R4l5_O-19" edge="1">
          <mxGeometry relative="1" as="geometry" />
        </mxCell>
        <mxCell id="CXmZNFnAKOORq5R4l5_O-25" value="카테고리&amp;nbsp;&lt;br&gt;삭제" style="ellipse;whiteSpace=wrap;html=1;" parent="1" vertex="1">
          <mxGeometry x="896" y="575" width="70" height="50" as="geometry" />
        </mxCell>
        <mxCell id="CXmZNFnAKOORq5R4l5_O-27" value="Use" style="endArrow=open;endSize=12;dashed=1;html=1;rounded=0;exitX=0.5;exitY=0.5;exitDx=0;exitDy=0;exitPerimeter=0;entryX=1;entryY=0.5;entryDx=0;entryDy=0;" parent="1" source="UZPZp_y11opqe0B-k2za-8" target="CXmZNFnAKOORq5R4l5_O-18" edge="1">
          <mxGeometry width="160" relative="1" as="geometry">
            <mxPoint x="1110" y="305" as="sourcePoint" />
            <mxPoint x="893" y="239" as="targetPoint" />
          </mxGeometry>
        </mxCell>
        <mxCell id="CXmZNFnAKOORq5R4l5_O-28" value="Use" style="endArrow=open;endSize=12;dashed=1;html=1;rounded=0;exitX=0.5;exitY=0.5;exitDx=0;exitDy=0;exitPerimeter=0;entryX=1;entryY=0.5;entryDx=0;entryDy=0;" parent="1" source="UZPZp_y11opqe0B-k2za-8" target="CXmZNFnAKOORq5R4l5_O-19" edge="1">
          <mxGeometry width="160" relative="1" as="geometry">
            <mxPoint x="1110" y="305" as="sourcePoint" />
            <mxPoint x="893" y="459" as="targetPoint" />
          </mxGeometry>
        </mxCell>
        <mxCell id="CXmZNFnAKOORq5R4l5_O-29" value="include" style="endArrow=open;endSize=12;html=1;rounded=0;exitX=0;exitY=0.5;exitDx=0;exitDy=0;entryX=0.912;entryY=0.234;entryDx=0;entryDy=0;entryPerimeter=0;" parent="1" source="CXmZNFnAKOORq5R4l5_O-2" target="UZPZp_y11opqe0B-k2za-32" edge="1">
          <mxGeometry x="0.0005" width="160" relative="1" as="geometry">
            <mxPoint x="787.0000000000073" y="39" as="sourcePoint" />
            <mxPoint x="672.0000000000059" y="371" as="targetPoint" />
            <mxPoint as="offset" />
          </mxGeometry>
        </mxCell>
        <mxCell id="CXmZNFnAKOORq5R4l5_O-30" value="iinclude" style="endArrow=open;endSize=12;html=1;rounded=0;exitX=0;exitY=0.5;exitDx=0;exitDy=0;entryX=0.897;entryY=0.199;entryDx=0;entryDy=0;entryPerimeter=0;" parent="1" source="CXmZNFnAKOORq5R4l5_O-9" target="UZPZp_y11opqe0B-k2za-32" edge="1">
          <mxGeometry width="160" relative="1" as="geometry">
            <mxPoint x="813" y="49" as="sourcePoint" />
            <mxPoint x="672.0000000000059" y="371" as="targetPoint" />
          </mxGeometry>
        </mxCell>
        <mxCell id="CXmZNFnAKOORq5R4l5_O-31" value="iinclude" style="endArrow=open;endSize=12;html=1;rounded=0;exitX=0;exitY=0.5;exitDx=0;exitDy=0;entryX=0.932;entryY=0.765;entryDx=0;entryDy=0;entryPerimeter=0;" parent="1" source="CXmZNFnAKOORq5R4l5_O-18" target="UZPZp_y11opqe0B-k2za-32" edge="1">
          <mxGeometry width="160" relative="1" as="geometry">
            <mxPoint x="813" y="239" as="sourcePoint" />
            <mxPoint x="672.0000000000059" y="371" as="targetPoint" />
          </mxGeometry>
        </mxCell>
        <mxCell id="CXmZNFnAKOORq5R4l5_O-32" value="iinclude" style="endArrow=open;endSize=12;html=1;rounded=0;exitX=0;exitY=0.5;exitDx=0;exitDy=0;entryX=0.907;entryY=0.791;entryDx=0;entryDy=0;entryPerimeter=0;" parent="1" source="CXmZNFnAKOORq5R4l5_O-19" target="UZPZp_y11opqe0B-k2za-32" edge="1">
          <mxGeometry width="160" relative="1" as="geometry">
            <mxPoint x="813" y="459" as="sourcePoint" />
            <mxPoint x="668.942" y="362.0300000000002" as="targetPoint" />
          </mxGeometry>
        </mxCell>
        <mxCell id="nczNlDjjGelLPV4pDz-x-2" value="결제정보" style="ellipse;whiteSpace=wrap;html=1;" parent="1" vertex="1">
          <mxGeometry x="321" y="389" width="80" height="50" as="geometry" />
        </mxCell>
        <mxCell id="nczNlDjjGelLPV4pDz-x-4" value="extend" style="endArrow=open;endSize=12;html=1;rounded=0;exitX=0;exitY=0.5;exitDx=0;exitDy=0;entryX=0.789;entryY=0.922;entryDx=0;entryDy=0;entryPerimeter=0;" parent="1" source="nczNlDjjGelLPV4pDz-x-2" target="UZPZp_y11opqe0B-k2za-11" edge="1">
          <mxGeometry width="160" relative="1" as="geometry">
            <mxPoint x="475" y="283.5" as="sourcePoint" />
            <mxPoint x="277.08264889204156" y="372.0965616343901" as="targetPoint" />
          </mxGeometry>
        </mxCell>
        <mxCell id="nczNlDjjGelLPV4pDz-x-7" value="extend" style="edgeStyle=orthogonalEdgeStyle;rounded=0;orthogonalLoop=1;jettySize=auto;html=1;" parent="1" source="nczNlDjjGelLPV4pDz-x-5" target="nczNlDjjGelLPV4pDz-x-2" edge="1">
          <mxGeometry relative="1" as="geometry" />
        </mxCell>
        <mxCell id="nczNlDjjGelLPV4pDz-x-5" value="카드" style="ellipse;whiteSpace=wrap;html=1;" parent="1" vertex="1">
          <mxGeometry x="431" y="361" width="60" height="40" as="geometry" />
        </mxCell>
        <mxCell id="nczNlDjjGelLPV4pDz-x-8" value="" style="edgeStyle=orthogonalEdgeStyle;rounded=0;orthogonalLoop=1;jettySize=auto;html=1;" parent="1" source="nczNlDjjGelLPV4pDz-x-6" target="nczNlDjjGelLPV4pDz-x-2" edge="1">
          <mxGeometry relative="1" as="geometry" />
        </mxCell>
        <mxCell id="nczNlDjjGelLPV4pDz-x-6" value="계좌이체" style="ellipse;whiteSpace=wrap;html=1;" parent="1" vertex="1">
          <mxGeometry x="431" y="426" width="60" height="40" as="geometry" />
        </mxCell>
        <mxCell id="nczNlDjjGelLPV4pDz-x-9" value="카드사" style="shape=umlActor;verticalLabelPosition=bottom;verticalAlign=top;html=1;" parent="1" vertex="1">
          <mxGeometry x="540" y="250" width="32" height="70" as="geometry" />
        </mxCell>
        <mxCell id="nczNlDjjGelLPV4pDz-x-10" value="Use" style="endArrow=open;endSize=12;dashed=1;html=1;rounded=0;exitX=1;exitY=0.5;exitDx=0;exitDy=0;entryX=0.5;entryY=0.5;entryDx=0;entryDy=0;entryPerimeter=0;" parent="1" source="nczNlDjjGelLPV4pDz-x-5" target="nczNlDjjGelLPV4pDz-x-9" edge="1">
          <mxGeometry width="160" relative="1" as="geometry">
            <mxPoint x="545" y="283.5" as="sourcePoint" />
            <mxPoint x="545" y="409.542857142857" as="targetPoint" />
          </mxGeometry>
        </mxCell>
        <mxCell id="nczNlDjjGelLPV4pDz-x-11" value="&lt;ul style=&quot;border-color: var(--border-color);&quot;&gt;&lt;li style=&quot;border-color: var(--border-color);&quot;&gt;유스케이스 명&amp;nbsp; :&amp;nbsp; 주문결제&lt;/li&gt;&lt;li style=&quot;border-color: var(--border-color);&quot;&gt;행위자 : 회원, 결제시스템,&amp;nbsp; LMS시스템&lt;/li&gt;&lt;li style=&quot;border-color: var(--border-color);&quot;&gt;유스케이스 개요 및 설명 : 회원이 원하는 ROOM 을 결제한다&lt;/li&gt;&lt;li style=&quot;border-color: var(--border-color);&quot;&gt;사전조건 : 회원은 룸을 검색한 상태이다&lt;/li&gt;&lt;li style=&quot;border-color: var(--border-color);&quot;&gt;이벤트 흐름&lt;/li&gt;&lt;/ul&gt;&lt;div style=&quot;border-color: var(--border-color);&quot;&gt;&lt;br style=&quot;border-color: var(--border-color);&quot;&gt;&lt;/div&gt;&lt;div style=&quot;border-color: var(--border-color);&quot;&gt;&amp;nbsp; &amp;nbsp; &amp;nbsp; &amp;nbsp; - 정상흐름&lt;/div&gt;&lt;div style=&quot;border-color: var(--border-color);&quot;&gt;&lt;ol style=&quot;border-color: var(--border-color);&quot;&gt;&lt;li style=&quot;border-color: var(--border-color);&quot;&gt;회원은 결제버튼을 클릭한다&lt;/li&gt;&lt;li style=&quot;border-color: var(--border-color);&quot;&gt;시스템은 결제창으로 진입한다는 메시지를 전달한다&lt;/li&gt;&lt;li style=&quot;border-color: var(--border-color);&quot;&gt;회원은 ok버튼을 눌러 결제창으로 진입한다&lt;/li&gt;&lt;li style=&quot;border-color: var(--border-color);&quot;&gt;시스템은 예약한 숙소가 맞는지 확인할 수 있도록 숙소정보를 보여준다&lt;/li&gt;&lt;li style=&quot;border-color: var(--border-color);&quot;&gt;회원은 해당정보를 확인다음 결제버튼을 누른다&lt;/li&gt;&lt;li style=&quot;border-color: var(--border-color);&quot;&gt;시스템은 카드/계좌이체 중 하나를 선택할 수 있는 정보를 보여준다&lt;/li&gt;&lt;li style=&quot;border-color: var(--border-color);&quot;&gt;회원은 카드를 선택한다&lt;/li&gt;&lt;li style=&quot;border-color: var(--border-color);&quot;&gt;시스템은 카드종류, 계좌번호, 비밀번호 입력받는 화면을 보여준다&lt;/li&gt;&lt;li style=&quot;border-color: var(--border-color);&quot;&gt;회원은 입력하고 결제 버튼을 누른다&lt;/li&gt;&lt;li style=&quot;border-color: var(--border-color);&quot;&gt;시스템은 카드사에 해당정보가 맞는지 확인한다&lt;/li&gt;&lt;li style=&quot;border-color: var(--border-color);&quot;&gt;카드사는 해당정보를 확인한 다음 ok 메시지를 보낸다&lt;/li&gt;&lt;li style=&quot;border-color: var(--border-color);&quot;&gt;시스템은 결제정보를 확인할 수 있도록 결제정보를 보여준다&lt;/li&gt;&lt;li style=&quot;border-color: var(--border-color);&quot;&gt;회원은 확인 버튼을 입력한다&lt;/li&gt;&lt;li style=&quot;border-color: var(--border-color);&quot;&gt;시스템은 회원에게 결제가 완료되었다고 알린다&lt;/li&gt;&lt;li style=&quot;border-color: var(--border-color);&quot;&gt;결제 종료된다&lt;/li&gt;&lt;/ol&gt;&lt;div&gt;- 대안 흐름&lt;/div&gt;&lt;div&gt;EP 회원이 취소를 하는 경우&lt;/div&gt;&lt;div&gt;&lt;ol&gt;&lt;li&gt;시스템은 결제가 취소되었다는 것을 알린다&lt;/li&gt;&lt;li&gt;시스템은 결제가 취소되었다는 메시지를 띄운다&lt;/li&gt;&lt;li&gt;시스템은 예약화면을 보여준다&lt;/li&gt;&lt;li&gt;회원은 Room을 다시 선택한다&lt;/li&gt;&lt;/ol&gt;&lt;div&gt;- 카드 결제가 되지않는다면&lt;/div&gt;&lt;/div&gt;&lt;div&gt;&lt;ol&gt;&lt;li&gt;시스템은 해당 카드로 결제가 되지않는다고 알린다&lt;/li&gt;&lt;li&gt;시스템은 카드/계좌이체 선택할수 있는 화면을 보여준다&lt;/li&gt;&lt;li&gt;회원은 결제정보를 다시 선택한다&lt;/li&gt;&lt;/ol&gt;&lt;/div&gt;&lt;/div&gt;" style="html=1;whiteSpace=wrap;align=left;" parent="1" vertex="1">
          <mxGeometry x="-50" y="1180" width="520" height="590" as="geometry" />
        </mxCell>
        <mxCell id="nczNlDjjGelLPV4pDz-x-15" value="" style="edgeStyle=orthogonalEdgeStyle;rounded=0;orthogonalLoop=1;jettySize=auto;html=1;" parent="1" source="nczNlDjjGelLPV4pDz-x-14" target="UZPZp_y11opqe0B-k2za-9" edge="1">
          <mxGeometry relative="1" as="geometry" />
        </mxCell>
        <mxCell id="nczNlDjjGelLPV4pDz-x-14" value="info" style="ellipse;whiteSpace=wrap;html=1;" parent="1" vertex="1">
          <mxGeometry x="361" y="72" width="70" height="38" as="geometry" />
        </mxCell>
        <mxCell id="nczNlDjjGelLPV4pDz-x-17" value="" style="edgeStyle=orthogonalEdgeStyle;rounded=0;orthogonalLoop=1;jettySize=auto;html=1;" parent="1" source="nczNlDjjGelLPV4pDz-x-16" target="UZPZp_y11opqe0B-k2za-9" edge="1">
          <mxGeometry relative="1" as="geometry" />
        </mxCell>
        <mxCell id="nczNlDjjGelLPV4pDz-x-16" value="Facilities" style="ellipse;whiteSpace=wrap;html=1;" parent="1" vertex="1">
          <mxGeometry x="361" y="126" width="70" height="38" as="geometry" />
        </mxCell>
        <mxCell id="nczNlDjjGelLPV4pDz-x-19" value="" style="edgeStyle=orthogonalEdgeStyle;rounded=0;orthogonalLoop=1;jettySize=auto;html=1;" parent="1" source="nczNlDjjGelLPV4pDz-x-18" target="UZPZp_y11opqe0B-k2za-10" edge="1">
          <mxGeometry relative="1" as="geometry" />
        </mxCell>
        <mxCell id="nczNlDjjGelLPV4pDz-x-18" value="Private&lt;br&gt;GrampingA" style="ellipse;whiteSpace=wrap;html=1;" parent="1" vertex="1">
          <mxGeometry x="361" y="200" width="70" height="38" as="geometry" />
        </mxCell>
        <mxCell id="nczNlDjjGelLPV4pDz-x-21" value="" style="edgeStyle=orthogonalEdgeStyle;rounded=0;orthogonalLoop=1;jettySize=auto;html=1;" parent="1" source="nczNlDjjGelLPV4pDz-x-20" target="UZPZp_y11opqe0B-k2za-10" edge="1">
          <mxGeometry relative="1" as="geometry" />
        </mxCell>
        <mxCell id="nczNlDjjGelLPV4pDz-x-20" value="Private GrampingB" style="ellipse;whiteSpace=wrap;html=1;" parent="1" vertex="1">
          <mxGeometry x="361" y="260" width="70" height="38" as="geometry" />
        </mxCell>
        <mxCell id="RPudnbvD47VPVhFWpZ7a-5" value="" style="edgeStyle=orthogonalEdgeStyle;rounded=0;orthogonalLoop=1;jettySize=auto;html=1;" edge="1" parent="1" source="nczNlDjjGelLPV4pDz-x-23" target="UZPZp_y11opqe0B-k2za-12">
          <mxGeometry relative="1" as="geometry" />
        </mxCell>
        <mxCell id="nczNlDjjGelLPV4pDz-x-23" value="Notice" style="ellipse;whiteSpace=wrap;html=1;" parent="1" vertex="1">
          <mxGeometry x="341" y="475" width="70" height="38" as="geometry" />
        </mxCell>
        <mxCell id="RPudnbvD47VPVhFWpZ7a-6" value="" style="edgeStyle=orthogonalEdgeStyle;rounded=0;orthogonalLoop=1;jettySize=auto;html=1;" edge="1" parent="1" source="nczNlDjjGelLPV4pDz-x-25" target="UZPZp_y11opqe0B-k2za-12">
          <mxGeometry relative="1" as="geometry" />
        </mxCell>
        <mxCell id="nczNlDjjGelLPV4pDz-x-25" value="FQA" style="ellipse;whiteSpace=wrap;html=1;" parent="1" vertex="1">
          <mxGeometry x="341" y="545" width="70" height="38" as="geometry" />
        </mxCell>
        <mxCell id="nczNlDjjGelLPV4pDz-x-42" value="extend" style="edgeStyle=orthogonalEdgeStyle;rounded=0;orthogonalLoop=1;jettySize=auto;html=1;" parent="1" source="nczNlDjjGelLPV4pDz-x-27" target="nczNlDjjGelLPV4pDz-x-23" edge="1">
          <mxGeometry relative="1" as="geometry" />
        </mxCell>
        <mxCell id="nczNlDjjGelLPV4pDz-x-27" value="키워드&lt;br&gt;검색" style="ellipse;whiteSpace=wrap;html=1;" parent="1" vertex="1">
          <mxGeometry x="471" y="475" width="70" height="38" as="geometry" />
        </mxCell>
        <mxCell id="nczNlDjjGelLPV4pDz-x-29" value="include" style="endArrow=open;endSize=12;html=1;rounded=0;exitX=1;exitY=0.5;exitDx=0;exitDy=0;entryX=0.5;entryY=1;entryDx=0;entryDy=0;" parent="1" source="UZPZp_y11opqe0B-k2za-23" target="UZPZp_y11opqe0B-k2za-32" edge="1">
          <mxGeometry width="160" relative="1" as="geometry">
            <mxPoint x="13" y="560" as="sourcePoint" />
            <mxPoint x="205" y="768" as="targetPoint" />
          </mxGeometry>
        </mxCell>
        <mxCell id="nczNlDjjGelLPV4pDz-x-31" value="&lt;div&gt;&lt;ul&gt;&lt;li&gt;유스케이스 명 : Notice 작성&lt;/li&gt;&lt;li&gt;행위자 : 관리자, 등록시스템&lt;/li&gt;&lt;li&gt;유스케이스 개요 및 설명 : 캠핑자내 소식 및 각종 이벤트에 대한 내용을 작성한다&lt;/li&gt;&lt;li&gt;사전조건 : 관리자는 Community 검색한 상태이다&lt;/li&gt;&lt;/ul&gt;&lt;div&gt;- 정상흐름&lt;/div&gt;&lt;/div&gt;&lt;div&gt;&lt;ol&gt;&lt;li&gt;관리자는 작성버튼을 클릭한다&lt;/li&gt;&lt;li&gt;시스템은 제목/내용을 작성할 수 있는 화면을 보여준다&lt;/li&gt;&lt;li&gt;관리자는 작성 후 저장버튼을 클릭한다&lt;/li&gt;&lt;li&gt;시스템은 저장되었다고 메시지를 보낸다&lt;/li&gt;&lt;li&gt;시스템은 글이 추가작성된 Notice 화면을 보여준다&lt;/li&gt;&lt;/ol&gt;&lt;div&gt;- 대안흐름&amp;nbsp;&lt;/div&gt;&lt;/div&gt;&lt;div&gt;&lt;br&gt;&lt;/div&gt;&lt;div&gt;관리자가 작성 전 취소하는 경우&lt;/div&gt;&lt;div&gt;&lt;ol&gt;&lt;li&gt;관리자는 작성 취소버튼을 누른다&lt;/li&gt;&lt;li&gt;시스템은 작성 전 페이지를 보여준다&lt;/li&gt;&lt;/ol&gt;&lt;div&gt;관리자가 작성 중 취소하는 경우&lt;/div&gt;&lt;/div&gt;&lt;div&gt;&lt;br&gt;&lt;/div&gt;&lt;div&gt;&lt;ol&gt;&lt;li&gt;관리자는 작성 취소버튼을 누른다&lt;/li&gt;&lt;li&gt;시스템은 작성저장/취소 버튼을 선택할 수 있는 화면을 보여준다&lt;/li&gt;&lt;li&gt;관리자는 작성저장 버튼을 누른다&lt;/li&gt;&lt;li&gt;시스템은 작성된 정보들을 저장한다&lt;/li&gt;&lt;li&gt;시스템은 Notice 화면을 보여준다&lt;/li&gt;&lt;/ol&gt;&lt;/div&gt;&lt;div&gt;&lt;br&gt;&lt;/div&gt;" style="html=1;whiteSpace=wrap;align=left;" parent="1" vertex="1">
          <mxGeometry x="540" y="1180" width="650" height="450" as="geometry" />
        </mxCell>
        <mxCell id="nczNlDjjGelLPV4pDz-x-32" value="Notice 관리" style="ellipse;whiteSpace=wrap;html=1;" parent="1" vertex="1">
          <mxGeometry x="787" y="637" width="139" height="78" as="geometry" />
        </mxCell>
        <mxCell id="nczNlDjjGelLPV4pDz-x-34" value="" style="edgeStyle=orthogonalEdgeStyle;rounded=0;orthogonalLoop=1;jettySize=auto;html=1;" parent="1" source="nczNlDjjGelLPV4pDz-x-33" target="nczNlDjjGelLPV4pDz-x-32" edge="1">
          <mxGeometry relative="1" as="geometry" />
        </mxCell>
        <mxCell id="nczNlDjjGelLPV4pDz-x-33" value="Notice&lt;br&gt;수정" style="ellipse;whiteSpace=wrap;html=1;" parent="1" vertex="1">
          <mxGeometry x="821.5" y="757" width="70" height="50" as="geometry" />
        </mxCell>
        <mxCell id="nczNlDjjGelLPV4pDz-x-36" value="" style="edgeStyle=orthogonalEdgeStyle;rounded=0;orthogonalLoop=1;jettySize=auto;html=1;" parent="1" source="nczNlDjjGelLPV4pDz-x-35" target="nczNlDjjGelLPV4pDz-x-32" edge="1">
          <mxGeometry relative="1" as="geometry" />
        </mxCell>
        <mxCell id="nczNlDjjGelLPV4pDz-x-35" value="Notice &lt;br&gt;등록" style="ellipse;whiteSpace=wrap;html=1;" parent="1" vertex="1">
          <mxGeometry x="747" y="757" width="70" height="50" as="geometry" />
        </mxCell>
        <mxCell id="nczNlDjjGelLPV4pDz-x-38" value="" style="edgeStyle=orthogonalEdgeStyle;rounded=0;orthogonalLoop=1;jettySize=auto;html=1;" parent="1" source="nczNlDjjGelLPV4pDz-x-37" target="nczNlDjjGelLPV4pDz-x-32" edge="1">
          <mxGeometry relative="1" as="geometry" />
        </mxCell>
        <mxCell id="nczNlDjjGelLPV4pDz-x-37" value="Notice&lt;br&gt;삭제" style="ellipse;whiteSpace=wrap;html=1;" parent="1" vertex="1">
          <mxGeometry x="896" y="757" width="70" height="50" as="geometry" />
        </mxCell>
        <mxCell id="nczNlDjjGelLPV4pDz-x-39" value="Use" style="endArrow=open;endSize=12;dashed=1;html=1;rounded=0;exitX=0.5;exitY=0.5;exitDx=0;exitDy=0;exitPerimeter=0;entryX=1;entryY=0.5;entryDx=0;entryDy=0;" parent="1" source="UZPZp_y11opqe0B-k2za-8" target="nczNlDjjGelLPV4pDz-x-32" edge="1">
          <mxGeometry width="160" relative="1" as="geometry">
            <mxPoint x="1110" y="305" as="sourcePoint" />
            <mxPoint x="893" y="577" as="targetPoint" />
          </mxGeometry>
        </mxCell>
        <mxCell id="nczNlDjjGelLPV4pDz-x-40" value="iinclude" style="endArrow=open;endSize=12;html=1;rounded=0;exitX=0;exitY=0.641;exitDx=0;exitDy=0;exitPerimeter=0;" parent="1" source="nczNlDjjGelLPV4pDz-x-32" edge="1">
          <mxGeometry width="160" relative="1" as="geometry">
            <mxPoint x="813" y="577" as="sourcePoint" />
            <mxPoint x="680" y="390" as="targetPoint" />
          </mxGeometry>
        </mxCell>
        <mxCell id="UZPZp_y11opqe0B-k2za-8" value="관리자" style="shape=umlActor;verticalLabelPosition=bottom;verticalAlign=top;html=1;" parent="1" vertex="1">
          <mxGeometry x="1020" y="301" width="32" height="70" as="geometry" />
        </mxCell>
      </root>
    </mxGraphModel>
  </diagram>
</mxfile>
